<svg id="Layer_1" data-name="Layer 1" xmlns="http://www.w3.org/2000/svg" viewBox="0 0 500 500">
  <defs>
    <style>
      .cls-2{fill:#fff}
    </style>
  </defs>
  <path d="M251 1C113.2 1 1 113.2 1 251s112.2 250 250 250 250-112.2 250-250S388.8 1 251 1Z" transform="translate(-1 -1)" style="fill:#ff3334"/>
  <path class="cls-2" d="M198.8 303h-28v-51.3c0-5.4-1.2-9.5-3.6-12.5s-6-4.4-10.8-4.4-9.8 1.9-13 5.6-4.9 8.4-4.9 14.2V303h-27v-51.3c0-5.4-1.2-9.5-3.6-12.5s-6-4.4-10.8-4.4a16.9 16.9 0 0 0-13 5.6c-3.3 3.7-4.9 8.4-4.9 14.2V303h-28v-68.4c0-13.7 12.3-23.5 24.7-23.8h1.9l1.2 14.1c4.5-7.6 17-14.2 27.1-14.2 13.7 0 21.4 5.9 26.2 12.5 7.4-8.1 18.2-12.5 30.5-12.5s20.6 3.3 26.8 9.9 9.2 15.4 9.2 26.7Zm43 3.3c-14 0-28.9-6.7-32.8-22.3a59.7 59.7 0 0 1-1.8-15.4v-55.8c0-17.1 13.1-27.2 26.2-27.2h1.8v27.3h21.6v21.7h-21.6v35.6c0 6.1 2.5 13.6 10.9 13.6s11.4-3.5 13.2-4.7l8.2 19.1a44.9 44.9 0 0 1-25.7 8.1Zm82.7-3.3h-26.4L262 212.9h31.2l19.1 58.8 24.1-61.3c13.2 7.8 20.5 26.5 14.2 40.3-.8 1.9-26.1 52.3-26.1 52.3ZM431.7 242.9c7.6-4.7 15.8-15.1 15.8-30.6 0-26.6-19.5-46-46.3-46-18.5 0-35.8 10.1-44.3 25.4l21.2 13.2c6.4-9.1 14-13.5 23.1-13.5 13 0 21.3 8.2 21.3 20.9s-9.4 20.2-21.9 20.2h-13.3v23.9h13.3c15.1 0 27 11.6 27 26.4s-10.3 24.3-26.3 24.3c-10.5 0-20.1-7.1-25.9-19.1l-20.3 16.9c7.6 17.2 25.8 28.8 46.2 28.8 31.4 0 51.6-20 51.6-50.9 0-18.1-10.7-34.7-21.2-39.9Z"/>
</svg>
