<svg width="234" height="224" viewBox="0 0 234 224" fill="none" xmlns="http://www.w3.org/2000/svg">
<g clip-path="url(#clip0_1058_1110)">
<path d="M105.18 223.766C47.18 223.766 0 176.586 0 118.586C0 60.5862 47.18 13.4062 105.18 13.4062C163.18 13.4062 210.36 60.5862 210.36 118.586C210.36 176.586 163.18 223.766 105.18 223.766ZM105.18 52.3963C68.69 52.3963 39 82.0862 39 118.576C39 155.066 68.69 184.756 105.18 184.756C141.67 184.756 171.36 155.066 171.36 118.576C171.36 82.0862 141.67 52.3963 105.18 52.3963Z" fill="url(#paint0_linear_1058_1110)"/>
<path d="M106.251 166.38C101.091 166.38 96.1306 164.33 92.4606 160.67L61.2306 129.44C53.6106 121.82 53.6106 109.48 61.2306 101.86C68.8506 94.2404 81.1906 94.2404 88.8106 101.86L105.031 118.08L198.551 7.12042C205.491 -1.11958 217.791 -2.15958 226.031 4.78042C234.261 11.7204 235.311 24.0204 228.371 32.2604L121.161 159.45C117.641 163.62 112.531 166.13 107.081 166.37C106.801 166.38 106.531 166.39 106.251 166.39V166.38Z" fill="url(#paint1_linear_1058_1110)"/>
<path d="M213.46 39.38C224.334 39.38 233.15 30.5645 233.15 19.69C233.15 8.81551 224.334 0 213.46 0C202.585 0 193.77 8.81551 193.77 19.69C193.77 30.5645 202.585 39.38 213.46 39.38Z" fill="white"/>
<path d="M75.0181 135.341C85.8926 135.341 94.7081 126.525 94.7081 115.651C94.7081 104.776 85.8926 95.9609 75.0181 95.9609C64.1436 95.9609 55.3281 104.776 55.3281 115.651C55.3281 126.525 64.1436 135.341 75.0181 135.341Z" fill="white"/>
<path d="M105.178 223.958C116.053 223.958 124.868 215.143 124.868 204.268C124.868 193.394 116.053 184.578 105.178 184.578C94.3038 184.578 85.4883 193.394 85.4883 204.268C85.4883 215.143 94.3038 223.958 105.178 223.958Z" fill="white"/>
<path d="M105.178 52.2081C116.053 52.2081 124.868 43.3926 124.868 32.5181C124.868 21.6436 116.053 12.8281 105.178 12.8281C94.3038 12.8281 85.4883 21.6436 85.4883 32.5181C85.4883 43.3926 94.3038 52.2081 105.178 52.2081Z" fill="white"/>
</g>
<defs>
<linearGradient id="paint0_linear_1058_1110" x1="0" y1="118.586" x2="210.37" y2="118.586" gradientUnits="userSpaceOnUse">
<stop offset="0.33" stop-color="#CDFC49"/>
<stop offset="1" stop-color="#28FF75"/>
</linearGradient>
<linearGradient id="paint1_linear_1058_1110" x1="55.5206" y1="83.2804" x2="232.961" y2="83.2804" gradientUnits="userSpaceOnUse">
<stop offset="0.33" stop-color="#CDFC49"/>
<stop offset="1" stop-color="#28FF75"/>
</linearGradient>
<clipPath id="clip0_1058_1110">
<rect width="233.15" height="223.96" fill="white"/>
</clipPath>
</defs>
</svg>
