<svg width="311" height="292" viewBox="0 0 311 292" fill="none" xmlns="http://www.w3.org/2000/svg">
<path fill-rule="evenodd" clip-rule="evenodd" d="M272 118.5C272 136.462 262.542 155.479 241.816 171.273C225.261 183.889 202.58 193.382 176.233 196.708C176.177 196.624 176.12 196.54 176.065 196.457L175.563 196.792C169.082 197.582 162.383 198 155.5 198C120.329 198 89.9413 187.091 69.1836 171.273C48.458 155.479 39 136.462 39 118.5C39 100.538 48.458 81.5215 69.1836 65.7274C89.9413 49.9089 120.329 39 155.5 39C190.671 39 221.059 49.9089 241.816 65.7274C262.542 81.5215 272 100.538 272 118.5ZM171.773 236.359C166.425 236.783 160.996 237 155.5 237C69.6197 237 0 183.946 0 118.5C0 53.0543 69.6197 0 155.5 0C241.38 0 311 53.0543 311 118.5C311 149.676 295.201 178.041 269.372 199.198C276.15 226.117 287.869 242.702 298.042 252.133C302.129 255.923 303.778 260.673 304.353 264.335C304.94 268.073 304.618 271.812 303.711 275.119C302.825 278.35 301.111 282.133 298.023 285.304C294.735 288.68 289.464 291.652 282.822 291.061C234.061 286.722 195.587 260.318 171.773 236.359ZM208.187 230.025C223.461 242.016 242.816 253.09 265.227 258.742C256.984 247.69 249.48 233.582 243.977 215.961C232.992 221.764 220.979 226.515 208.187 230.025Z" fill="url(#paint0_linear_1187_1290)"/>
<circle cx="108.5" cy="116.5" r="19.5" fill="white"/>
<circle cx="155.5" cy="116.5" r="19.5" fill="white"/>
<circle cx="202.5" cy="116.5" r="19.5" fill="white"/>
<defs>
<linearGradient id="paint0_linear_1187_1290" x1="155.5" y1="73.9644" x2="155.5" y2="291.136" gradientUnits="userSpaceOnUse">
<stop stop-color="#00FFFF"/>
<stop offset="1" stop-color="#0066DB"/>
</linearGradient>
</defs>
</svg>
